<svg version="1.1" xmlns="http://www.w3.org/2000/svg" xmlns:xlink="http://www.w3.org/1999/xlink" width="73.38759" height="53" viewBox="0,0,73.38759,53"><g transform="translate(-213.5,-153.5)"><g data-paper-data="{&quot;isPaintingLayer&quot;:true}" fill-rule="nonzero" stroke-linejoin="miter" stroke-miterlimit="10" stroke-dasharray="" stroke-dashoffset="0" style="mix-blend-mode: normal"><g stroke="#000000" stroke-width="0" stroke-linecap="butt"><path d="M225.94219,201.00786v-8.47676h37.74975v8.47676z" fill="#ff0000"></path><path d="M261.99658,196.64838c0,-3.47775 2.81927,-6.29702 6.29702,-6.29702c3.47775,0 6.29702,2.81927 6.29702,6.29702c0,3.47775 -2.81927,6.29702 -6.29702,6.29702c-3.47775,0 -6.29702,-2.81927 -6.29702,-6.29702z" fill="#ffe486"></path></g><g stroke="#000000" stroke-width="0" stroke-linecap="butt"><path d="M226.12214,168.02947v-8.47676h37.74975v8.47676z" fill="#ff0000"></path><path d="M262.17653,163.66999c0,-3.47775 2.81927,-6.29702 6.29702,-6.29702c3.47775,0 6.29702,2.81927 6.29702,6.29702c0,3.47775 -2.81927,6.29702 -6.29702,6.29702c-3.47775,0 -6.29702,-2.81927 -6.29702,-6.29702z" fill="#ffe486"></path></g><path d="M214.5,180c0,-14.08326 11.41674,-25.5 25.5,-25.5c14.08326,0 25.5,11.41674 25.5,25.5c0,14.08326 -11.41674,25.5 -25.5,25.5c-14.08326,0 -25.5,-11.41674 -25.5,-25.5z" fill="#000000" stroke="#000000" stroke-width="2" stroke-linecap="butt"></path><path d="M240,154.5c14.08326,0 25.5,11.41674 25.5,25.5c0,14.08326 -11.41674,25.5 -25.5,25.5c-14.08326,0 -14.08326,-51 0,-51z" fill="#ffe486" stroke="#000000" stroke-width="2" stroke-linecap="butt"></path><path d="M264.49351,174.3742h-9.04755" fill="none" stroke="#000000" stroke-width="2" stroke-linecap="round"></path><path d="M255.5452,186.72534h9.04755" fill="none" stroke="#000000" stroke-width="2" stroke-linecap="round"></path><path d="M231.69614,203.53243v-47.31866h12.57288v47.31866z" fill="#000000" stroke="#000000" stroke-width="2" stroke-linecap="butt"></path><path d="M225.95218,185.78289v-12.44038h6.97415v12.44038z" fill="#000000" stroke="#000000" stroke-width="2" stroke-linecap="butt"></path><path d="M267.37524,195.71402v-31.42804h19.26235v31.42804z" fill="#ffffff" stroke="#ff0000" stroke-width="0.5" stroke-linecap="butt"></path><g data-paper-data="{&quot;index&quot;:null}"><g stroke="#000000" stroke-width="0" stroke-linecap="butt"><path d="M274.02882,183.89574v-1.57194h7.00038v1.57194z" fill="#ff0000"></path><path d="M273.17549,184.25504c-0.64492,0 -1.16773,-0.52281 -1.16773,-1.16773c0,-0.64492 0.52281,-1.16773 1.16773,-1.16773c0.64492,0 1.16773,0.52281 1.16773,1.16773c0,0.64492 -0.52281,1.16773 -1.16773,1.16773z" fill="#ffe486"></path></g><g stroke="#000000" stroke-width="0" stroke-linecap="butt"><path d="M274.05102,177.78017v-1.57194h7.00037v1.57194z" fill="#ff0000"></path><path d="M273.19768,178.13946c-0.64492,0 -1.16773,-0.5228 -1.16773,-1.16772c0,-0.64492 0.52281,-1.16773 1.16773,-1.16773c0.64492,0 1.16773,0.52281 1.16773,1.16773c0,0.64492 -0.52281,1.16772 -1.16773,1.16772z" fill="#ffe486"></path></g><path d="M278.47786,184.72877c-2.61162,0 -4.72876,-2.11714 -4.72876,-4.72877c0,-2.61163 2.11713,-4.72876 4.72876,-4.72876c2.61162,0 4.72876,2.11713 4.72876,4.72876c0,2.61163 -2.11713,4.72877 -4.72876,4.72877z" fill="#000000" stroke="#000000" stroke-width="0.5" stroke-linecap="butt"></path><path d="M278.47786,184.72877c-2.61162,0 -4.72876,-2.11714 -4.72876,-4.72877c0,-2.61163 2.11713,-4.72876 4.72876,-4.72876c2.61163,0 2.61163,9.45753 0,9.45753z" fill="#ffe486" stroke="#000000" stroke-width="0.5" stroke-linecap="butt"></path><path d="M275.61354,178.95675h-1.6778" fill="none" stroke="#000000" stroke-width="0.5" stroke-linecap="round"></path><path d="M273.91734,181.24716h1.67779" fill="none" stroke="#000000" stroke-width="0.5" stroke-linecap="round"></path><path d="M277.6862,184.3639v-8.77485h2.33154v8.77485z" fill="#000000" stroke="#000000" stroke-width="0.5" stroke-linecap="butt"></path><path d="M279.81739,181.07239v-2.30697h1.2933v2.30697z" fill="#000000" stroke="#000000" stroke-width="0.5" stroke-linecap="butt"></path><path d="M269.88428,182.7694v-5.43097h3.32866v5.43097z" fill="#ffffff" stroke="#ff0000" stroke-width="0.5" stroke-linecap="butt"></path></g></g></g></svg>