<svg version="1.1" xmlns="http://www.w3.org/2000/svg" xmlns:xlink="http://www.w3.org/1999/xlink" width="65.81574" height="53" viewBox="0,0,65.81574,53"><g transform="translate(-213.5,-153.5)"><g data-paper-data="{&quot;isPaintingLayer&quot;:true}" fill-rule="nonzero" stroke="#000000" stroke-linejoin="miter" stroke-miterlimit="10" stroke-dasharray="" stroke-dashoffset="0" style="mix-blend-mode: normal"><g stroke-width="0" stroke-linecap="butt"><path d="M230.66731,168.02947v-8.47676h37.74975v8.47676z" fill="#ff0000"></path><path d="M266.7217,163.66999c0,-3.47775 2.81927,-6.29702 6.29702,-6.29702c3.47775,0 6.29702,2.81927 6.29702,6.29702c0,3.47775 -2.81927,6.29702 -6.29702,6.29702c-3.47775,0 -6.29702,-2.81927 -6.29702,-6.29702z" fill="#ffe486"></path></g><path d="M214.5,180c0,-14.08326 11.41674,-25.5 25.5,-25.5c14.08326,0 25.5,11.41674 25.5,25.5c0,14.08326 -11.41674,25.5 -25.5,25.5c-14.08326,0 -25.5,-11.41674 -25.5,-25.5z" fill="#000000" stroke-width="2" stroke-linecap="butt"></path><path d="M240,154.5c14.08326,0 25.5,11.41674 25.5,25.5c0,14.08326 -11.41674,25.5 -25.5,25.5c-14.08326,0 -14.08326,-51 0,-51z" fill="#ffe486" stroke-width="2" stroke-linecap="butt"></path><path d="M264.49351,174.3742h-9.04755" fill="none" stroke-width="2" stroke-linecap="round"></path><path d="M255.5452,186.72534h9.04755" fill="none" stroke-width="2" stroke-linecap="round"></path><path d="M231.69614,203.53243v-47.31866h12.57288v47.31866z" fill="#000000" stroke-width="2" stroke-linecap="butt"></path><path d="M225.95218,185.78289v-12.44038h6.97415v12.44038z" fill="#000000" stroke-width="2" stroke-linecap="butt"></path></g></g></svg>