<svg version="1.1" xmlns="http://www.w3.org/2000/svg" xmlns:xlink="http://www.w3.org/1999/xlink" width="128.34352" height="128.34352" viewBox="0,0,128.34352,128.34352"><defs><radialGradient cx="268.45313" cy="180.1229" r="9.19789" gradientUnits="userSpaceOnUse" id="color-1"><stop offset="0" stop-color="#5a5a5a"></stop><stop offset="1" stop-color="#ff0000"></stop></radialGradient><radialGradient cx="239.75834" cy="180.30001" r="34.90588" gradientUnits="userSpaceOnUse" id="color-2"><stop offset="0" stop-color="#000000"></stop><stop offset="1" stop-color="#5a5a5a"></stop></radialGradient><radialGradient cx="270.60002" cy="208.56668" r="13.625" gradientUnits="userSpaceOnUse" id="color-3"><stop offset="0" stop-color="#545454"></stop><stop offset="1" stop-color="#d2d2d2" stop-opacity="0.78226"></stop></radialGradient><radialGradient cx="270.56667" cy="152.10001" r="13.625" gradientUnits="userSpaceOnUse" id="color-4"><stop offset="0" stop-color="#555555"></stop><stop offset="1" stop-color="#d2d2d2" stop-opacity="0.78226"></stop></radialGradient><radialGradient cx="209.43334" cy="208.90001" r="13.625" gradientUnits="userSpaceOnUse" id="color-5"><stop offset="0" stop-color="#545454"></stop><stop offset="1" stop-color="#d2d2d2" stop-opacity="0.78226"></stop></radialGradient><radialGradient cx="209.39999" cy="151.10001" r="13.625" gradientUnits="userSpaceOnUse" id="color-6"><stop offset="0" stop-color="#545454"></stop><stop offset="1" stop-color="#d2d2d2" stop-opacity="0.78226"></stop></radialGradient><radialGradient cx="270.53441" cy="152.04842" r="1.66071" gradientUnits="userSpaceOnUse" id="color-7"><stop offset="0" stop-color="#ff0000"></stop><stop offset="1" stop-color="#ff0000" stop-opacity="0"></stop></radialGradient><radialGradient cx="209.41771" cy="208.88175" r="1.66071" gradientUnits="userSpaceOnUse" id="color-8"><stop offset="0" stop-color="#ff0000"></stop><stop offset="1" stop-color="#ff0000" stop-opacity="0"></stop></radialGradient><radialGradient cx="209.3344" cy="151.13175" r="1.66071" gradientUnits="userSpaceOnUse" id="color-9"><stop offset="0" stop-color="#1dff00"></stop><stop offset="1" stop-color="#1dff00" stop-opacity="0"></stop></radialGradient><radialGradient cx="270.58439" cy="208.54842" r="1.66071" gradientUnits="userSpaceOnUse" id="color-10"><stop offset="0" stop-color="#1dff00"></stop><stop offset="1" stop-color="#1dff00" stop-opacity="0"></stop></radialGradient><radialGradient cx="240" cy="180" r="64.17176" gradientUnits="userSpaceOnUse" id="color-11"><stop offset="0" stop-color="#00fff9" stop-opacity="0"></stop><stop offset="1" stop-color="#00fff9"></stop></radialGradient></defs><g transform="translate(-175.82824,-115.82824)"><g data-paper-data="{&quot;isPaintingLayer&quot;:true}" fill-rule="nonzero" stroke-linejoin="miter" stroke-miterlimit="10" stroke-dasharray="" stroke-dashoffset="0" style="mix-blend-mode: normal"><path d="M267.91017,170.15355h5.5" fill="none" stroke="#000000" stroke-width="2" stroke-linecap="round"></path><path d="M268.13518,190.15355h5.375" fill="none" stroke="#000000" stroke-width="2" stroke-linecap="round"></path><path d="M222.38474,169.72095l-15.42232,-15.42232l4.66956,-4.66956l15.42232,15.42232z" data-paper-data="{&quot;index&quot;:null}" fill="#5a5a5a" stroke="none" stroke-width="0" stroke-linecap="butt"></path><path d="M253.21241,165.55139l15.42232,-15.42232l4.66956,4.66956l-15.42232,15.42232z" data-paper-data="{&quot;index&quot;:null}" fill="#5a5a5a" stroke="none" stroke-width="0" stroke-linecap="butt"></path><path d="M226.80431,196.04863l-15.42232,15.42232l-4.66956,-4.66956l15.42232,-15.42232z" fill="#5a5a5a" stroke="none" stroke-width="0" stroke-linecap="butt"></path><path d="M257.63199,190.87907l15.42232,15.42232l-4.66956,4.66956l-15.42232,-15.42232z" fill="#5a5a5a" stroke="none" stroke-width="0" stroke-linecap="butt"></path><path d="M268.45313,170.92501c5.41527,0 9.80521,4.11803 9.80521,9.19789c0,5.07986 -4.38994,9.19789 -9.80521,9.19789c-0.99602,0 -0.18735,-18.39578 0,-18.39578z" fill="url(#color-1)" stroke="none" stroke-width="0" stroke-linecap="butt"></path><path d="M239.75834,158.80001c19.27798,0 34.90588,9.62588 34.90588,21.5c0,11.87412 -15.62789,21.5 -34.90588,21.5c-19.27799,0 -34.90588,-9.62588 -34.90588,-21.5c0,-11.87412 15.62789,-21.5 34.90588,-21.5z" fill="url(#color-2)" stroke="none" stroke-width="0" stroke-linecap="butt"></path><path d="M270.60002,194.94168c7.52488,0 13.625,6.10012 13.625,13.625c0,7.52488 -6.10012,13.625 -13.625,13.625c-7.52488,0 -13.625,-6.10012 -13.625,-13.625c0,-7.52488 6.10012,-13.625 13.625,-13.625z" fill="url(#color-3)" stroke="none" stroke-width="0" stroke-linecap="butt"></path><path d="M270.56667,138.47501c7.52488,0 13.625,6.10012 13.625,13.625c0,7.52488 -6.10012,13.625 -13.625,13.625c-7.52488,0 -13.625,-6.10012 -13.625,-13.625c0,-7.52488 6.10012,-13.625 13.625,-13.625z" fill="url(#color-4)" stroke="none" stroke-width="0" stroke-linecap="butt"></path><path d="M209.43334,195.27501c7.52488,0 13.625,6.10012 13.625,13.625c0,7.52488 -6.10012,13.625 -13.625,13.625c-7.52488,0 -13.625,-6.10012 -13.625,-13.625c0,-7.52488 6.10012,-13.625 13.625,-13.625z" fill="url(#color-5)" stroke="none" stroke-width="0" stroke-linecap="butt"></path><path d="M209.39998,137.47501c7.52488,0 13.625,6.10012 13.625,13.625c0,7.52488 -6.10012,13.625 -13.625,13.625c-7.52488,0 -13.625,-6.10012 -13.625,-13.625c0,-7.52488 6.10012,-13.625 13.625,-13.625z" fill="url(#color-6)" stroke="none" stroke-width="0" stroke-linecap="butt"></path><path d="M270.53441,150.38771c0.91719,0 1.66071,0.74353 1.66071,1.66071c0,0.91719 -0.74353,1.66071 -1.66071,1.66071c-0.91719,0 -1.66071,-0.74353 -1.66071,-1.66071c0,-0.91719 0.74353,-1.66071 1.66071,-1.66071z" fill="url(#color-7)" stroke="none" stroke-width="0" stroke-linecap="butt"></path><path d="M209.41771,207.22104c0.91718,0 1.66072,0.74353 1.66072,1.66072c0,0.91718 -0.74353,1.66071 -1.66072,1.66071c-0.91718,0 -1.66072,-0.74353 -1.66072,-1.66071c0,-0.91719 0.74353,-1.66072 1.66072,-1.66072z" fill="url(#color-8)" stroke="none" stroke-width="0" stroke-linecap="butt"></path><path d="M209.3344,149.47104c0.91718,0 1.66072,0.74353 1.66072,1.66072c0,0.91719 -0.74353,1.66071 -1.66072,1.66071c-0.91718,0 -1.66071,-0.74353 -1.66071,-1.66071c0,-0.91719 0.74353,-1.66072 1.66071,-1.66072z" fill="url(#color-9)" stroke="none" stroke-width="0" stroke-linecap="butt"></path><path d="M270.58439,206.88771c0.91718,0 1.66071,0.74353 1.66071,1.66071c0,0.91719 -0.74353,1.66071 -1.66071,1.66071c-0.91718,0 -1.66072,-0.74353 -1.66072,-1.66071c0,-0.91718 0.74353,-1.66071 1.66072,-1.66071z" fill="url(#color-10)" stroke="none" stroke-width="0" stroke-linecap="butt"></path><path d="M175.82824,180c0,-35.44109 28.73068,-64.17176 64.17176,-64.17176c35.44109,0 64.17176,28.73068 64.17176,64.17176c0,35.44109 -28.73068,64.17176 -64.17176,64.17176c-35.44109,0 -64.17176,-28.73068 -64.17176,-64.17176z" fill="url(#color-11)" stroke="none" stroke-width="0" stroke-linecap="butt"></path></g></g></svg>