<svg version="1.1" xmlns="http://www.w3.org/2000/svg" xmlns:xlink="http://www.w3.org/1999/xlink" width="73.3415" height="73.3415" viewBox="0,0,73.3415,73.3415"><g transform="translate(-203.32925,-143.32925)"><g data-paper-data="{&quot;isPaintingLayer&quot;:true}" fill-rule="nonzero" stroke-linejoin="miter" stroke-miterlimit="10" stroke-dasharray="" stroke-dashoffset="0" style="mix-blend-mode: normal"><g data-paper-data="{&quot;index&quot;:null}" fill="#000000" stroke="none" stroke-width="0" stroke-linecap="butt"><path d="M236.41886,183.63153l-25.95533,-25.95533l33.17285,18.73781z"></path><path d="M243.58114,176.36847l25.95533,25.95533l-33.17286,-18.7378z" data-paper-data="{&quot;index&quot;:null}"></path></g><g data-paper-data="{&quot;index&quot;:null}" fill="#000000" stroke="none" stroke-width="0" stroke-linecap="butt"><path d="M240.03563,185.10012h-36.70638l36.70638,-10.20712z"></path><path d="M239.96437,174.89988l36.70638,0l-36.70638,10.20712z" data-paper-data="{&quot;index&quot;:null}"></path></g><g data-paper-data="{&quot;index&quot;:null}" fill="#000000" stroke="none" stroke-width="0" stroke-linecap="butt"><path d="M243.63152,183.58114l-25.95533,25.95533l18.73781,-33.17285z"></path><path d="M236.36848,176.41886l25.95533,-25.95533l-18.73781,33.17285z" data-paper-data="{&quot;index&quot;:null}"></path></g><g fill="#000000" stroke="none" stroke-width="0" stroke-linecap="butt"><path d="M234.89988,180.03563v-36.70638l10.20712,36.70638z"></path><path d="M245.10012,179.96437v36.70638l-10.20712,-36.70638z" data-paper-data="{&quot;index&quot;:null}"></path></g><path d="M214.5,180c0,-14.08326 11.41674,-25.5 25.5,-25.5c14.08326,0 25.5,11.41674 25.5,25.5c0,14.08326 -11.41674,25.5 -25.5,25.5c-14.08326,0 -25.5,-11.41674 -25.5,-25.5z" fill="#000000" stroke="#000000" stroke-width="2" stroke-linecap="butt"></path><path d="M240,154.5c14.08326,0 25.5,11.41674 25.5,25.5c0,14.08326 -11.41674,25.5 -25.5,25.5c-14.08326,0 -14.08326,-51 0,-51z" fill="#ffe486" stroke="#000000" stroke-width="2" stroke-linecap="butt"></path><path d="M255.44596,174.3742h9.04755" fill="none" stroke="#000000" stroke-width="2" stroke-linecap="round"></path><path d="M255.5452,186.72534h9.04755" fill="none" stroke="#000000" stroke-width="2" stroke-linecap="round"></path><path d="M231.69614,203.53243v-47.31866h12.57288v47.31866z" fill="#000000" stroke="#000000" stroke-width="2" stroke-linecap="butt"></path><path d="M225.95218,185.78289v-12.44038h6.97415v12.44038z" fill="#000000" stroke="#000000" stroke-width="2" stroke-linecap="butt"></path></g></g></svg>