<svg version="1.1" xmlns="http://www.w3.org/2000/svg" xmlns:xlink="http://www.w3.org/1999/xlink" width="74.67055" height="55.5539" viewBox="0,0,74.67055,55.5539"><defs><linearGradient x1="193.02526" y1="180.0653" x2="240.03464" y2="180.0653" gradientUnits="userSpaceOnUse" id="color-1"><stop offset="0" stop-color="#00fffc" stop-opacity="0"></stop><stop offset="1" stop-color="#00fffc"></stop></linearGradient><radialGradient cx="240" cy="180" r="27.69581" gradientUnits="userSpaceOnUse" id="color-2"><stop offset="0" stop-color="#00ffff" stop-opacity="0.04032"></stop><stop offset="1" stop-color="#00fffc"></stop></radialGradient></defs><g transform="translate(-193.02526,-152.28835)"><g data-paper-data="{&quot;isPaintingLayer&quot;:true}" fill-rule="nonzero" stroke-linejoin="miter" stroke-miterlimit="10" stroke-dasharray="" stroke-dashoffset="0" style="mix-blend-mode: normal"><path d="M193.02526,207.84225v-55.5539h47.00938v55.5539z" fill="url(#color-1)" stroke="none" stroke-width="0" stroke-linecap="butt"></path><path d="M214.5,180c0,-14.08326 11.41674,-25.5 25.5,-25.5c14.08326,0 25.5,11.41674 25.5,25.5c0,14.08326 -11.41674,25.5 -25.5,25.5c-14.08326,0 -25.5,-11.41674 -25.5,-25.5z" fill="#000000" stroke="#000000" stroke-width="2" stroke-linecap="butt"></path><path d="M240,154.5c14.08326,0 25.5,11.41674 25.5,25.5c0,14.08326 -11.41674,25.5 -25.5,25.5c-14.08326,0 -14.08326,-51 0,-51z" fill="#ffe486" stroke="#000000" stroke-width="2" stroke-linecap="butt"></path><path d="M255.44596,174.3742h9.04755" fill="none" stroke="#000000" stroke-width="2" stroke-linecap="round"></path><path d="M264.59275,186.72534h-9.04755" fill="none" stroke="#000000" stroke-width="2" stroke-linecap="round"></path><path d="M231.69614,203.53243v-47.31866h12.57288v47.31866z" fill="#000000" stroke="#000000" stroke-width="2" stroke-linecap="butt"></path><path d="M225.95218,185.78289v-12.44038h6.97415v12.44038z" fill="#000000" stroke="#000000" stroke-width="2" stroke-linecap="butt"></path><path d="M212.30419,180c0,-15.29597 12.39984,-27.69581 27.69581,-27.69581c15.29597,0 27.69581,12.39984 27.69581,27.69581c0,15.29597 -12.39984,27.69581 -27.69581,27.69581c-15.29597,0 -27.69581,-12.39984 -27.69581,-27.69581z" fill="url(#color-2)" stroke="none" stroke-width="0" stroke-linecap="butt"></path></g></g></svg>