<svg version="1.1" xmlns="http://www.w3.org/2000/svg" xmlns:xlink="http://www.w3.org/1999/xlink" width="93.09543" height="93.14817" viewBox="0,0,93.09543,93.14817"><defs><radialGradient cx="201.74141" cy="141.84185" r="4.9047" gradientTransform="translate(-768.78691,-678.8558) scale(3.86458,4.70466)" gradientUnits="userSpaceOnUse" id="color-1"><stop offset="0" stop-color="#c0c0c0"></stop><stop offset="1" stop-color="#686868"></stop></radialGradient><radialGradient cx="278.83822" cy="141.46431" r="4.9047" gradientTransform="translate(-1066.7341,-677.0796) scale(3.86458,4.70466)" gradientUnits="userSpaceOnUse" id="color-2"><stop offset="0" stop-color="#c0c0c0"></stop><stop offset="1" stop-color="#686868"></stop></radialGradient><radialGradient cx="278.79678" cy="217.71674" r="4.9047" gradientTransform="translate(-1066.57393,-1035.82172) scale(3.86458,4.70466)" gradientUnits="userSpaceOnUse" id="color-3"><stop offset="0" stop-color="#c0c0c0"></stop><stop offset="1" stop-color="#686868"></stop></radialGradient><radialGradient cx="201.78926" cy="218.01139" r="4.9047" gradientTransform="translate(-768.97185,-1037.20795) scale(3.86458,4.70466)" gradientUnits="userSpaceOnUse" id="color-4"><stop offset="0" stop-color="#c0c0c0"></stop><stop offset="1" stop-color="#686868"></stop></radialGradient></defs><g transform="translate(-193.40457,-133.5)"><g data-paper-data="{&quot;isPaintingLayer&quot;:true}" fill-rule="nonzero" stroke-linejoin="miter" stroke-miterlimit="10" stroke-dasharray="" stroke-dashoffset="0" style="mix-blend-mode: normal"><path d="M195,225v-90h90v90z" data-paper-data="{&quot;index&quot;:null}" fill="#9e9e9e" stroke="#000000" stroke-width="3" stroke-linecap="butt"></path><path d="M256.0508,164.73891v60.09016l-60.37349,-60.7714h89.41812" data-paper-data="{&quot;index&quot;:null}" fill="none" stroke="#000000" stroke-width="1.5" stroke-linecap="round"></path><path d="M284.89465,198.0535h-28.26226" data-paper-data="{&quot;index&quot;:null}" fill="none" stroke="#000000" stroke-width="1.5" stroke-linecap="round"></path><path d="M238.07473,163.57353v-27.69701" data-paper-data="{&quot;index&quot;:null}" fill="none" stroke="#000000" stroke-width="1.5" stroke-linecap="round"></path><path d="M194.90457,225v-90h90v90z" data-paper-data="{&quot;index&quot;:null}" fill="none" stroke="#000000" stroke-width="3" stroke-linecap="butt"></path><g data-paper-data="{&quot;index&quot;:null}" stroke-linecap="butt"><path d="M198.82342,142.12857c0,-1.56088 1.26534,-2.82622 2.82622,-2.82622c1.56088,0 2.82623,1.26534 2.82623,2.82622c0,1.56088 -1.26535,2.82622 -2.82623,2.82622c-1.56088,0 -2.82622,-1.26534 -2.82622,-2.82622z" fill="#787878" stroke="#787878" stroke-width="3"></path><text transform="translate(198.9313,144.2942) scale(0.25876,0.21256)" font-size="40" xml:space="preserve" fill="url(#color-1)" fill-rule="nonzero" stroke="none" stroke-width="1" stroke-linecap="butt" stroke-linejoin="miter" stroke-miterlimit="10" stroke-dasharray="" stroke-dashoffset="0" font-family="Sans Serif" font-weight="normal" text-anchor="start" style="mix-blend-mode: normal"><tspan x="0" dy="0">x</tspan></text></g><g data-paper-data="{&quot;index&quot;:null}" stroke-linecap="butt"><path d="M275.92023,141.75103c0,-1.56088 1.26535,-2.82622 2.82623,-2.82622c1.56088,0 2.82622,1.26534 2.82622,2.82622c0,1.56088 -1.26534,2.82623 -2.82622,2.82623c-1.56088,0 -2.82623,-1.26535 -2.82623,-2.82623z" fill="#787878" stroke="#787878" stroke-width="3"></path><text transform="translate(276.02811,143.91666) scale(0.25876,0.21256)" font-size="40" xml:space="preserve" fill="url(#color-2)" fill-rule="nonzero" stroke="none" stroke-width="1" stroke-linecap="butt" stroke-linejoin="miter" stroke-miterlimit="10" stroke-dasharray="" stroke-dashoffset="0" font-family="Sans Serif" font-weight="normal" text-anchor="start" style="mix-blend-mode: normal"><tspan x="0" dy="0">x</tspan></text></g><g data-paper-data="{&quot;index&quot;:null}" stroke-linecap="butt"><path d="M275.87879,218.00346c0,-1.56088 1.26535,-2.82622 2.82623,-2.82622c1.56088,0 2.82623,1.26534 2.82623,2.82622c0,1.56088 -1.26535,2.82623 -2.82623,2.82623c-1.56088,0 -2.82623,-1.26535 -2.82623,-2.82623z" fill="#787878" stroke="#787878" stroke-width="3"></path><text transform="translate(275.98667,220.16909) scale(0.25876,0.21256)" font-size="40" xml:space="preserve" fill="url(#color-3)" fill-rule="nonzero" stroke="none" stroke-width="1" stroke-linecap="butt" stroke-linejoin="miter" stroke-miterlimit="10" stroke-dasharray="" stroke-dashoffset="0" font-family="Sans Serif" font-weight="normal" text-anchor="start" style="mix-blend-mode: normal"><tspan x="0" dy="0">x</tspan></text></g><path d="M198.87127,218.29811c0,-1.56088 1.26535,-2.82623 2.82623,-2.82623c1.56088,0 2.82623,1.26535 2.82623,2.82623c0,1.56088 -1.26535,2.82622 -2.82623,2.82622c-1.56088,0 -2.82623,-1.26534 -2.82623,-2.82622z" data-paper-data="{&quot;index&quot;:null}" fill="#787878" stroke="#787878" stroke-width="3" stroke-linecap="butt"></path><text transform="translate(198.97915,220.46374) scale(0.25876,0.21256)" font-size="40" xml:space="preserve" data-paper-data="{&quot;index&quot;:null}" fill="url(#color-4)" fill-rule="nonzero" stroke="none" stroke-width="1" stroke-linecap="butt" stroke-linejoin="miter" stroke-miterlimit="10" stroke-dasharray="" stroke-dashoffset="0" font-family="Sans Serif" font-weight="normal" text-anchor="start" style="mix-blend-mode: normal"><tspan x="0" dy="0">x</tspan></text></g></g></svg>