<svg version="1.1" xmlns="http://www.w3.org/2000/svg" xmlns:xlink="http://www.w3.org/1999/xlink" width="69.06548" height="53" viewBox="0,0,69.06548,53"><g transform="translate(-213.5,-153.5)"><g data-paper-data="{&quot;isPaintingLayer&quot;:true}" fill-rule="nonzero" stroke-linejoin="miter" stroke-miterlimit="10" stroke-dasharray="" stroke-dashoffset="0" style="mix-blend-mode: normal"><path d="M226.12214,168.02947v-8.47676h37.74975v8.47676z" fill="#ff0000" stroke="#000000" stroke-width="0" stroke-linecap="butt"></path><path d="M262.17653,163.66999c0,-3.47775 2.81927,-6.29702 6.29702,-6.29702c3.47775,0 6.29702,2.81927 6.29702,6.29702c0,3.47775 -2.81927,6.29702 -6.29702,6.29702c-3.47775,0 -6.29702,-2.81927 -6.29702,-6.29702z" fill="#ffe486" stroke="#000000" stroke-width="0" stroke-linecap="butt"></path><path d="M214.5,180c0,-14.08326 11.41674,-25.5 25.5,-25.5c14.08326,0 25.5,11.41674 25.5,25.5c0,14.08326 -11.41674,25.5 -25.5,25.5c-14.08326,0 -25.5,-11.41674 -25.5,-25.5z" fill="#000000" stroke="#000000" stroke-width="2" stroke-linecap="butt"></path><path d="M240,154.5c14.08326,0 25.5,11.41674 25.5,25.5c0,14.08326 -11.41674,25.5 -25.5,25.5c-14.08326,0 -14.08326,-51 0,-51z" fill="#ffe486" stroke="#000000" stroke-width="2" stroke-linecap="butt"></path><path d="M264.49351,174.3742h-9.04755" fill="none" stroke="#000000" stroke-width="2" stroke-linecap="round"></path><path d="M255.5452,186.72534h9.04755" fill="none" stroke="#000000" stroke-width="2" stroke-linecap="round"></path><path d="M231.69614,203.53243v-47.31866h12.57288v47.31866z" fill="#000000" stroke="#000000" stroke-width="2" stroke-linecap="butt"></path><path d="M225.95218,185.78289v-12.44038h6.97415v12.44038z" fill="#000000" stroke="#000000" stroke-width="2" stroke-linecap="butt"></path><path d="M278.7647,168.85436l1.92797,1.28154" fill="none" stroke="#0027ff" stroke-width="1.5" stroke-linecap="round"></path><path d="M279.88751,167.16519l1.92797,1.28154" fill="none" stroke="#ff0000" stroke-width="1.5" stroke-linecap="round"></path><path d="M262.40906,164.68357l4.81925,-7.25016l13.96061,9.27975l-4.81925,7.25016z" fill="#000000" stroke="none" stroke-width="0" stroke-linecap="butt"></path></g></g></svg>