<svg version="1.1" xmlns="http://www.w3.org/2000/svg" xmlns:xlink="http://www.w3.org/1999/xlink" width="101.61578" height="101.61578" viewBox="0,0,101.61578,101.61578"><g transform="translate(-189.19211,-129.19211)"><g data-paper-data="{&quot;isPaintingLayer&quot;:true}" fill-rule="nonzero" stroke-linejoin="miter" stroke-miterlimit="10" stroke-dasharray="" stroke-dashoffset="0" style="mix-blend-mode: normal"><path d="M190.69211,180c0,-27.232 22.0759,-49.30789 49.30789,-49.30789c27.232,0 49.30789,22.0759 49.30789,49.30789c0,27.232 -22.0759,49.30789 -49.30789,49.30789c-27.232,0 -49.30789,-22.0759 -49.30789,-49.30789z" fill="#000000" stroke="none" stroke-width="0" stroke-linecap="butt"></path><path d="M194.72639,162.06986h21.51617" fill="none" stroke="#ffffff" stroke-width="4" stroke-linecap="round"></path><path d="M193.38163,194.34411h22.41268" fill="none" stroke="#ffffff" stroke-width="4" stroke-linecap="round"></path><path d="M190.69211,180c0,-27.232 22.0759,-49.30789 49.30789,-49.30789c27.232,0 49.30789,22.0759 49.30789,49.30789c0,27.232 -22.0759,49.30789 -49.30789,49.30789c-27.232,0 -49.30789,-22.0759 -49.30789,-49.30789z" fill="none" stroke="#00fff9" stroke-width="3" stroke-linecap="butt"></path></g></g></svg>