<svg version="1.1" xmlns="http://www.w3.org/2000/svg" xmlns:xlink="http://www.w3.org/1999/xlink" width="726.31832" height="544.72373" viewBox="0,0,726.31832,544.72373"><defs><radialGradient cx="240" cy="180" r="170.11644" gradientUnits="userSpaceOnUse" id="color-1"><stop offset="0" stop-color="#333333" stop-opacity="0.29032"></stop><stop offset="1" stop-color="#000000"></stop></radialGradient></defs><g transform="translate(120.3979,90.46726)"><g data-paper-data="{&quot;isPaintingLayer&quot;:true}" fill-rule="nonzero" stroke-linecap="butt" stroke-linejoin="miter" stroke-miterlimit="10" stroke-dasharray="" stroke-dashoffset="0" style="mix-blend-mode: normal"><path d="M69.88357,180c0,-93.9527 76.16373,-170.11643 170.11644,-170.11643c93.9527,0 170.11644,76.16373 170.11644,170.11644c0,93.9527 -76.16373,170.11644 -170.11644,170.11644c-93.9527,0 -170.11643,-76.16373 -170.11643,-170.11644z" fill="url(#color-1)" stroke="none" stroke-width="0"></path><path d="M-73.49724,418.90148v-477.80296h626.99448v477.80296zM240,296.26044c66.29488,0 120.03749,-53.74261 120.03749,-120.03749c0,-66.29488 -53.74261,-120.03749 -120.03749,-120.03749c-66.29488,0 -120.03749,53.74261 -120.03749,120.03749c0,66.29488 53.74261,120.03749 120.03749,120.03749z" fill="#000000" stroke="#000000" stroke-width="2"></path><path d="M-118.93243,452.22944v-541.6967h82.65616v541.6967z" fill="#000000" stroke="#000000" stroke-width="2"></path><path d="M-119.3979,-30.80209v-58.16366h724.31832v58.16366z" fill="#000000" stroke="#000000" stroke-width="2"></path><path d="M514.77478,449.73094v-539.15916h84.59009v539.15916z" fill="#000000" stroke="#000000" stroke-width="2"></path><path d="M-117.49399,453.25647v-90.66517h718.47147v90.66517z" fill="#000000" stroke="#000000" stroke-width="2"></path></g></g></svg>