<svg version="1.1" xmlns="http://www.w3.org/2000/svg" xmlns:xlink="http://www.w3.org/1999/xlink" width="547.04204" height="443.43845" viewBox="0,0,547.04204,443.43845"><defs><radialGradient cx="333.33333" cy="243.3033" r="47.27928" gradientUnits="userSpaceOnUse" id="color-1"><stop offset="0" stop-color="#8b6200"></stop><stop offset="1" stop-color="#bf8600"></stop></radialGradient><radialGradient cx="120.37538" cy="102.41742" r="36.01802" gradientUnits="userSpaceOnUse" id="color-2"><stop offset="0" stop-color="#8b6200"></stop><stop offset="1" stop-color="#bf8600"></stop></radialGradient></defs><g transform="translate(33.52102,41.71922)"><g data-paper-data="{&quot;isPaintingLayer&quot;:true}" fill-rule="nonzero" stroke="none" stroke-width="0" stroke-linecap="butt" stroke-linejoin="miter" stroke-miterlimit="10" stroke-dasharray="" stroke-dashoffset="0" style="mix-blend-mode: normal"><path d="M286.05405,243.30331c0,-26.11161 21.16767,-47.27928 47.27928,-47.27928c26.11161,0 47.27928,21.16767 47.27928,47.27928c0,26.11161 -21.16767,47.27928 -47.27928,47.27928c-26.11161,0 -47.27928,-21.16767 -47.27928,-47.27928z" fill="url(#color-1)"></path><path d="M84.35736,102.41742c0,-19.89219 16.12583,-36.01802 36.01802,-36.01802c19.89219,0 36.01802,16.12583 36.01802,36.01802c0,19.89219 -16.12583,36.01801 -36.01802,36.01801c-19.89219,0 -36.01802,-16.12583 -36.01802,-36.01801z" fill="url(#color-2)"></path><path d="M-33.52102,401.22372v-442.94294h73.57357v442.94294z" fill="#000000"></path><path d="M439.94745,401.71922v-442.94294h73.57357v442.94295z" fill="#000000"></path><path d="M298.57658,243.06306c0,-19.89219 16.12583,-36.01802 36.01802,-36.01802c19.89219,0 36.01802,16.12583 36.01802,36.01802c0,19.89219 -16.12583,36.01802 -36.01802,36.01802c-19.89219,0 -36.01802,-16.12583 -36.01802,-36.01802z" fill="#a87600"></path><path d="M96.36937,101.66667c0,-13.67277 11.08399,-24.75676 24.75676,-24.75676c13.67277,0 24.75676,11.08399 24.75676,24.75676c0,13.67277 -11.08399,24.75675 -24.75676,24.75675c-13.67277,0 -24.75676,-11.08398 -24.75676,-24.75675z" fill="#a87600"></path></g></g></svg>